<?xml version="1.0" standalone="no"?>
<!DOCTYPE svg PUBLIC "-//W3C//DTD SVG 20010904//EN"
 "http://www.w3.org/TR/2001/REC-SVG-20010904/DTD/svg10.dtd">
<svg version="1.0" xmlns="http://www.w3.org/2000/svg"
 width="300.000000pt" height="300.000000pt" viewBox="0 0 300.000000 300.000000"
 preserveAspectRatio="xMidYMid meet">
<metadata>
Created by potrace 1.10, written by Peter Selinger 2001-2011
</metadata>
<g transform="translate(0.000000,300.000000) scale(0.100000,-0.100000)"
fill="#000000" stroke="none">
<path d="M1282 2602 c-11 -10 -24 -30 -27 -45 -6 -21 -1 -33 25 -58 35 -36 34
-66 -3 -54 -12 4 -38 8 -58 9 -19 2 -40 5 -45 9 -6 3 -21 -1 -32 -9 -19 -13
-22 -23 -18 -67 2 -29 6 -59 10 -68 13 -30 -11 -29 -49 1 -44 35 -54 36 -84
11 -30 -26 -34 -56 -10 -77 10 -9 19 -22 19 -28 0 -16 -52 -66 -70 -66 -9 0
-29 -13 -45 -30 -16 -16 -35 -30 -42 -30 -8 0 -25 -12 -38 -26 l-25 -27 0
-372 c0 -456 -12 -422 157 -440 55 -5 107 -20 209 -61 34 -13 70 -25 80 -27
11 -2 32 -9 47 -15 36 -15 53 -15 80 0 23 12 28 14 62 17 11 1 30 17 43 36 20
32 52 48 52 26 0 -5 12 -23 27 -40 20 -23 36 -31 60 -31 17 0 35 -4 38 -10 8
-12 39 -13 63 -1 9 5 40 16 67 24 28 8 82 27 120 41 39 15 115 33 170 42 153
23 140 -17 140 438 l0 384 -25 21 c-14 11 -30 20 -36 21 -5 0 -23 14 -39 30
-16 17 -36 30 -44 30 -18 0 -71 49 -71 65 0 7 9 20 20 30 27 25 25 50 -6 74
-35 28 -44 27 -89 -9 -43 -34 -61 -38 -50 -12 4 9 11 40 15 67 7 44 5 53 -15
74 -19 19 -26 21 -44 11 -12 -6 -30 -8 -41 -5 -11 3 -27 2 -37 -3 -10 -5 -26
-7 -35 -3 -16 5 -15 11 12 51 36 54 37 62 8 92 -30 31 -43 29 -79 -6 -30 -30
-37 -60 -18 -72 8 -4 7 -9 -2 -15 -9 -5 -23 4 -44 29 -16 20 -30 40 -30 44 0
12 -38 37 -56 38 -19 0 -71 -55 -94 -100 -19 -36 -39 -30 -31 8 6 28 -13 76
-28 72 -5 -1 -13 5 -18 14 -12 21 -20 20 -46 -2z m40 -29 c10 -9 18 -29 18
-44 0 -56 87 -255 104 -238 7 7 -21 130 -32 141 -11 11 -4 48 8 48 11 0 20
-27 20 -63 0 -18 7 -54 14 -82 l14 -50 3 50 2 50 4 -42 c2 -24 8 -43 12 -43 4
0 4 21 0 48 -4 26 -3 75 2 110 6 41 6 69 -1 82 -10 19 -4 50 10 50 14 0 16
-22 15 -165 -1 -106 0 -127 7 -85 4 30 7 83 6 118 -1 66 14 102 27 63 4 -12 2
-27 -3 -34 -5 -7 -12 -55 -16 -107 -6 -106 10 -95 21 14 7 69 21 97 36 71 5
-10 5 -21 -1 -28 -12 -14 -43 -140 -36 -146 18 -18 104 183 104 241 0 28 22
57 43 58 15 0 6 -54 -12 -74 -20 -23 -91 -201 -91 -229 0 -9 4 -17 9 -17 11 0
68 90 73 116 4 22 38 32 38 11 0 -8 -15 -30 -32 -49 -18 -19 -39 -46 -47 -61
-13 -25 -12 -28 13 -53 25 -25 28 -26 53 -13 15 8 42 29 61 47 19 17 41 32 49
32 24 0 10 -33 -17 -40 -14 -4 -47 -21 -74 -38 -36 -23 -45 -33 -33 -38 21 -8
226 85 238 108 9 18 69 27 69 11 -1 -20 -30 -43 -52 -43 -29 0 -232 -92 -243
-110 -5 -8 -15 2 -29 26 -11 20 -38 51 -59 68 -36 29 -45 31 -117 31 -72 0
-81 -2 -117 -31 -21 -17 -48 -48 -59 -69 l-22 -38 58 -48 c32 -26 69 -59 84
-72 l26 -24 0 -389 0 -388 -32 31 c-54 51 -147 111 -196 127 -37 12 -186 36
-224 36 -5 0 -8 174 -8 386 l0 386 78 -7 c83 -7 156 -20 185 -30 10 -4 17 -3
17 4 0 15 -206 111 -238 111 -22 0 -51 23 -52 43 0 15 61 7 67 -9 3 -9 47 -35
97 -59 108 -50 132 -58 147 -50 13 9 -86 75 -112 75 -10 0 -19 2 -19 4 0 2 -3
11 -6 20 -4 12 0 16 15 16 12 0 21 -4 21 -10 0 -5 25 -26 55 -46 l54 -36 29
27 29 27 -31 49 c-17 26 -39 51 -48 54 -24 8 -24 48 -1 43 10 -2 19 -12 21
-22 5 -26 62 -116 73 -116 5 0 9 8 9 17 0 28 -71 206 -91 229 -18 19 -27 74
-12 74 3 0 15 -7 25 -17z m148 -123 c-6 -58 -7 -60 -9 -19 0 25 -6 50 -12 56
-6 6 -8 21 -4 33 6 19 9 20 20 9 10 -11 11 -31 5 -79z m386 -26 c-3 -9 -6 -19
-6 -24 0 -5 -10 -10 -22 -12 -12 -2 -38 -26 -61 -56 -28 -39 -33 -51 -18 -43
11 6 32 27 47 46 22 29 54 47 54 31 0 -16 -14 -36 -26 -36 -7 0 -39 -22 -71
-48 -66 -54 -107 -80 -53 -33 39 34 33 43 -7 11 -15 -11 -28 -18 -31 -16 -9 9
51 77 99 111 30 21 49 43 49 54 0 17 13 26 44 30 4 0 5 -6 2 -15z m-669 -14
c5 -20 113 -108 113 -92 0 5 -20 27 -45 50 -47 42 -58 66 -28 60 10 -2 24 -17
32 -33 8 -17 33 -53 57 -82 24 -28 44 -55 44 -59 0 -5 -13 7 -30 26 -16 19
-29 30 -30 23 0 -6 4 -15 10 -18 5 -3 15 -15 21 -26 9 -19 9 -19 -10 -10 -11
6 -23 16 -26 21 -3 6 -12 10 -18 10 -7 0 4 -14 23 -31 54 -47 13 -21 -53 33
-32 26 -65 48 -73 48 -7 0 -14 2 -14 4 0 2 -3 11 -6 20 -11 30 23 17 50 -19
15 -19 36 -40 47 -45 14 -8 10 3 -17 40 -20 29 -47 55 -59 60 -31 12 -41 40
-14 40 12 0 23 -8 26 -20z m603 6 c0 -8 -13 -24 -28 -35 -16 -11 -48 -45 -72
-76 -23 -30 -45 -53 -48 -51 -2 3 18 31 45 63 27 32 54 70 61 86 12 28 42 38
42 13z m-200 -166 c38 -19 90 -81 90 -107 0 -16 1 -16 37 -2 42 16 119 29 201
35 l72 5 0 -384 0 -385 -52 -6 c-189 -23 -243 -45 -358 -144 l-50 -43 0 388 0
388 57 50 c31 28 64 56 74 63 18 13 18 14 -1 53 -64 125 -254 126 -319 2 -11
-21 -20 -31 -21 -23 0 27 49 89 88 109 50 27 131 27 182 1z m-13 -50 c18 -11
35 -31 39 -44 5 -22 -3 -34 -51 -78 -32 -29 -61 -54 -65 -56 -3 -1 -32 22 -64
52 -67 64 -70 88 -17 123 43 29 113 31 158 3z m-589 -450 l-3 -369 55 -6 c127
-14 199 -34 267 -74 92 -54 100 -61 117 -102 l15 -37 -112 58 c-113 58 -186
84 -329 115 l-78 17 -2 384 -3 384 38 0 37 0 -2 -370z m1094 -14 l-2 -384 -78
-17 c-136 -29 -215 -56 -322 -110 -57 -30 -106 -52 -109 -49 -2 2 2 19 11 37
11 22 40 47 95 80 80 48 146 67 283 82 l55 6 -3 369 -2 370 37 0 38 0 -3 -384z
m-1202 -46 l0 -370 29 0 c114 0 344 -73 416 -132 48 -40 44 -50 -12 -27 -210
84 -284 105 -435 124 l-48 6 0 385 0 384 25 0 25 0 0 -370z m1290 -14 l0 -385
-47 -6 c-128 -16 -179 -29 -308 -76 -77 -28 -148 -55 -157 -60 -32 -17 -20 8
19 40 71 59 300 131 414 131 l29 0 0 370 0 370 25 0 25 0 0 -384z"/>
</g>
</svg>
